<?xml version="1.0" standalone="no"?>
<!DOCTYPE svg PUBLIC "-//W3C//DTD SVG 20010904//EN"
 "http://www.w3.org/TR/2001/REC-SVG-20010904/DTD/svg10.dtd">
<svg version="1.0" xmlns="http://www.w3.org/2000/svg"
 width="246.000000pt" height="148.000000pt" viewBox="0 0 246.000000 148.000000"
 preserveAspectRatio="xMidYMid meet">

<g transform="translate(0.000000,148.000000) scale(0.100000,-0.100000)"
fill="#000000" stroke="none">
<path d="M822 1145 c-14 -31 -15 -35 -3 -35 8 0 23 51 17 58 -2 1 -8 -9 -14
-23z"/>
<path d="M786 1083 c-3 -7 -18 -13 -33 -13 -36 0 -91 -34 -103 -63 -5 -12 -9
-16 -9 -8 -1 11 -4 11 -16 1 -8 -7 -12 -17 -9 -22 4 -6 -2 -7 -17 -3 -13 4
-21 4 -16 -1 11 -11 -52 -36 -75 -28 -10 3 -30 16 -43 30 -17 17 -35 24 -64
24 -60 0 -57 -14 8 -34 46 -14 68 -28 112 -74 55 -57 106 -134 112 -169 2 -10
8 -28 15 -40 16 -29 15 -33 -8 -33 -11 0 -39 19 -62 43 l-42 42 27 -49 c30
-54 35 -81 13 -73 -8 3 -17 0 -20 -8 -3 -8 -1 -15 4 -17 4 -2 10 -23 11 -48 3
-36 1 -44 -11 -41 -8 2 -33 4 -55 5 -24 0 -45 6 -52 16 -11 13 -12 13 -13 -1
0 -12 -12 -18 -37 -22 -42 -5 -64 6 -46 24 7 7 13 7 17 0 13 -20 32 -1 28 29
-4 28 -5 29 -28 13 -25 -16 -27 -15 -37 32 -3 14 -5 12 -6 -8 0 -15 -8 -30
-16 -33 -13 -5 -13 -8 1 -21 24 -24 11 -38 -35 -39 -47 0 -59 12 -41 45 8 17
8 21 -4 21 -8 0 -17 -13 -21 -29 -10 -46 -38 -34 -42 18 -1 23 1 40 6 37 5 -3
11 6 14 20 3 20 1 24 -12 19 -9 -4 -20 -7 -24 -8 -5 -1 -24 21 -43 48 -70 102
-65 97 -80 77 -7 -9 -14 -26 -14 -38 0 -11 -5 -25 -12 -32 -6 -6 -9 -15 -5
-18 3 -4 14 7 24 25 10 17 21 31 25 31 9 0 27 -33 31 -57 1 -10 5 -22 8 -28 4
-5 9 -23 13 -39 7 -26 5 -28 -18 -22 -31 8 -41 -6 -15 -22 12 -8 19 -9 19 -1
0 5 5 7 10 4 14 -9 12 -32 -3 -38 -7 -3 -32 -2 -55 3 l-42 7 0 -258 0 -259
1230 0 1230 0 0 120 c0 66 -4 120 -9 120 -4 0 -5 19 0 43 12 60 11 129 -1 122
-6 -3 -10 3 -10 14 0 11 5 23 10 26 12 8 12 83 -1 110 -8 17 -8 15 -4 -7 3
-16 2 -28 -3 -28 -9 0 -18 26 -44 123 -7 26 -16 47 -21 47 -5 0 -7 7 -3 15 3
8 1 15 -4 15 -6 0 -10 11 -10 25 0 33 16 32 28 -2 l10 -28 1 35 1 35 28 -39
c24 -34 27 -36 30 -17 2 11 -6 33 -18 49 -34 43 -70 102 -70 113 0 6 -8 8 -18
5 -14 -5 -21 2 -30 28 -14 39 -64 68 -147 86 -27 6 -70 18 -96 27 -42 14 -50
14 -105 -2 -32 -9 -69 -26 -81 -37 -19 -17 -26 -19 -53 -9 -21 7 -38 7 -51 1
-10 -6 -28 -14 -39 -20 -11 -5 -29 -10 -40 -10 -11 0 -23 -7 -26 -15 -4 -10
-21 -15 -53 -15 -31 0 -41 -3 -32 -9 12 -8 12 -12 -2 -26 -10 -9 -17 -12 -17
-6 0 6 -5 11 -11 11 -6 0 -9 -7 -5 -15 3 -8 0 -14 -6 -12 -7 1 -13 -7 -15 -18
-3 -16 -2 -17 6 -5 6 8 11 11 11 7 0 -5 -22 -31 -50 -58 -28 -27 -50 -58 -50
-70 0 -11 5 -17 10 -14 5 3 10 -1 10 -9 0 -25 -19 -66 -30 -66 -6 0 -9 4 -5
10 3 5 2 17 -3 27 -46 93 -74 205 -68 279 5 73 -13 111 -59 120 -29 5 -39 3
-50 -12 -22 -29 -17 -42 5 -16 l19 23 6 -28 c12 -54 24 -99 46 -161 21 -62 21
-80 0 -67 -6 3 -11 22 -11 41 0 19 -6 49 -13 67 -14 33 -91 107 -111 107 -6 0
12 -21 41 -45 42 -37 53 -54 63 -96 7 -27 10 -53 6 -56 -13 -13 -47 32 -53 69
-6 43 -42 97 -43 66 0 -21 -4 -22 -31 -7 -11 5 -17 15 -13 21 4 6 -1 8 -13 4
-17 -5 -20 -2 -18 24 1 17 -2 33 -6 36 -4 2 -40 1 -79 -2 l-71 -7 21 -22 20
-22 -25 -11 c-14 -7 -32 -12 -40 -12 -8 0 -15 -4 -15 -9 0 -5 -9 -11 -19 -14
-10 -2 -27 -21 -36 -41 -10 -20 -28 -45 -41 -55 -13 -10 -24 -25 -24 -33 0
-22 -12 -29 -27 -16 -7 6 -16 8 -20 4 -3 -3 -1 -6 6 -6 8 0 10 -15 6 -52 -7
-54 -34 -128 -47 -128 -5 0 -8 -15 -8 -34 0 -19 -4 -37 -9 -41 -10 -5 -19 156
-12 207 2 15 11 28 22 31 10 3 19 13 19 22 0 14 -3 15 -15 5 -12 -10 -15 -9
-15 4 0 32 32 156 41 162 5 3 16 21 23 39 17 41 45 50 117 41 60 -8 64 -1 7
15 -80 23 -127 27 -132 12z m-22 -90 c5 -12 3 -13 -7 -5 -11 9 -13 7 -13 -11
1 -13 -4 -21 -12 -19 -10 2 -10 -2 -2 -17 6 -12 6 -22 1 -25 -5 -4 -12 0 -15
6 -3 7 -5 4 -4 -7 1 -28 -34 -105 -49 -105 -6 0 -18 7 -27 15 -8 9 -18 15 -21
15 -30 -3 -99 86 -73 95 7 2 42 14 77 25 36 12 75 30 88 40 26 20 48 18 57 -7z
m1410 -7 c52 -26 156 -103 156 -116 0 -4 -14 -7 -30 -7 -17 0 -26 4 -19 7 7 5
8 10 1 14 -6 3 -13 2 -16 -2 -8 -14 -4 -85 6 -104 6 -14 5 -16 -7 -12 -8 4
-15 11 -15 17 0 6 -3 8 -6 5 -3 -4 2 -20 10 -37 18 -33 22 -57 5 -28 -21 35
-28 15 -8 -23 27 -51 20 -74 -9 -27 -14 25 -26 35 -37 31 -8 -3 -15 -2 -15 4
0 5 -8 9 -17 8 -11 0 -17 6 -17 16 1 10 -2 16 -6 13 -5 -3 -12 0 -15 5 -4 7
-19 9 -35 5 -20 -4 -32 -1 -42 12 -15 20 -134 54 -188 52 -72 -1 -68 -15 4
-15 59 0 81 -4 103 -20 15 -11 46 -25 68 -32 60 -17 174 -109 224 -181 l43
-62 -23 -20 -23 -19 -35 32 c-20 18 -38 36 -42 41 -3 4 -15 9 -27 12 -12 2
-27 7 -32 10 -6 4 -31 8 -56 10 -24 1 -58 8 -75 15 -28 12 -31 17 -26 47 3 18
2 33 -3 33 -11 0 -21 -45 -14 -64 4 -11 -8 -19 -45 -33 -28 -10 -51 -21 -51
-26 0 -5 -16 -23 -35 -41 -24 -23 -35 -42 -35 -61 0 -27 0 -28 -20 -10 -11 10
-20 24 -20 32 0 8 -14 19 -31 25 -17 6 -35 22 -41 37 -9 20 -12 22 -15 9 -2
-9 -13 -20 -24 -23 -11 -4 -28 -15 -38 -26 -15 -16 -22 -17 -48 -9 -25 9 -32
18 -37 50 -3 21 -10 40 -15 42 -17 6 5 96 32 127 17 20 29 49 33 79 5 42 11
50 45 70 21 12 46 36 54 52 18 36 39 47 105 60 49 9 53 8 103 -25 29 -18 78
-43 109 -55 32 -12 60 -26 63 -31 4 -5 11 -9 17 -9 7 0 6 6 -2 15 -9 10 -9 15
-1 15 10 0 15 -13 12 -32 0 -4 8 -12 20 -18 20 -11 20 -10 5 17 -20 37 -52 72
-98 107 -31 23 -44 27 -73 22 -35 -7 -45 3 -22 22 17 14 123 31 174 28 24 -2
67 -15 97 -30z m-1124 -6 c0 -5 22 -17 48 -26 35 -13 52 -25 61 -46 7 -16 25
-35 39 -42 48 -25 119 -103 151 -165 34 -68 38 -96 15 -126 -15 -20 -16 -20
-43 10 -40 44 -71 69 -71 59 0 -5 18 -27 40 -49 21 -22 39 -45 40 -52 0 -14
51 -76 57 -69 3 2 -3 20 -12 39 -13 28 -14 40 -5 56 21 41 40 18 40 -47 -1
-41 -23 -81 -35 -62 -4 7 -16 10 -26 7 -11 -3 -19 -1 -19 4 0 18 -31 8 -41
-13 -8 -21 -9 -20 -4 5 8 42 -15 30 -39 -19 -11 -23 -21 -33 -24 -25 -2 7 1
17 9 21 25 16 -10 40 -57 40 l-44 0 0 39 c0 22 -4 43 -10 46 -6 4 -7 -11 -3
-41 l6 -47 -39 8 c-21 4 -49 7 -61 7 -13 -1 -23 4 -23 11 -1 7 -5 6 -13 -5
-10 -13 -21 -15 -57 -8 -24 4 -54 4 -68 -1 -35 -13 -38 -12 -52 21 -14 33 -25
38 -34 15 -3 -8 -1 -15 4 -15 6 0 10 -7 10 -16 0 -13 -3 -14 -13 -5 -8 6 -17
8 -20 4 -11 -10 -8 10 9 84 45 194 112 310 221 383 49 32 63 36 63 20z m310
-28 c0 -15 -2 -15 -10 -2 -13 20 -13 33 0 25 6 -3 10 -14 10 -23z m655 -33
c19 -17 35 -36 35 -42 0 -6 -15 6 -34 26 -24 26 -39 35 -52 31 -16 -5 -16 -4
-4 5 19 14 14 16 55 -20z m-46 -5 c13 -12 -8 -10 -29 2 l-25 15 25 -7 c14 -3
27 -8 29 -10z m-459 -208 c0 -3 -4 -8 -10 -11 -5 -3 -10 -1 -10 4 0 6 5 11 10
11 6 0 10 -2 10 -4z m-31 -100 c-8 -30 -7 -45 6 -72 13 -28 14 -38 5 -50 -20
-23 -32 -16 -30 19 1 17 1 34 0 37 -8 23 -7 47 3 59 9 12 9 13 0 7 -7 -4 -13
-5 -13 -2 0 7 34 44 37 41 1 0 -2 -18 -8 -39z m-795 -47 l7 -57 -28 2 c-15 0
-30 5 -32 9 -6 13 10 101 22 115 15 19 23 1 31 -69z m1719 -21 c8 -51 -9 -48
-23 3 -12 45 -4 91 10 54 4 -11 10 -37 13 -57z m-2243 48 c0 -3 -4 -8 -10 -11
-5 -3 -10 -1 -10 4 0 6 5 11 10 11 6 0 10 -2 10 -4z m1906 -60 c9 -3 19 -4 22
-1 3 3 1 5 -5 5 -5 0 -10 7 -10 15 0 11 6 13 21 9 58 -18 100 -51 88 -70 -9
-13 -102 -5 -102 8 0 6 -6 5 -15 -2 -8 -7 -21 -10 -30 -7 -8 4 -17 2 -20 -3
-4 -6 -46 -10 -95 -10 -62 0 -90 -4 -93 -12 -2 -7 -8 -10 -12 -6 -9 9 59 79
93 97 30 16 72 6 73 -17 1 -13 2 -14 5 -2 3 9 15 20 27 25 17 8 23 7 29 -6 3
-9 14 -19 24 -23z m-392 -47 c-7 -12 -44 -12 -44 0 0 5 6 11 13 14 17 6 38 -3
31 -14z m559 -19 c3 -10 -4 -28 -15 -39 -24 -27 -32 -27 -17 0 7 14 7 25 1 31
-5 5 -7 18 -5 29 6 23 28 10 36 -21z m107 -6 c0 -11 -4 -10 -19 3 -11 9 -18
20 -15 25 8 12 34 -11 34 -28z m-1998 -18 c-3 -5 -9 -1 -13 10 -12 31 -10 39
5 19 8 -11 12 -24 8 -29z m288 36 c0 -13 -12 -22 -22 -16 -10 6 -1 24 13 24 5
0 9 -4 9 -8z m1088 -23 c2 -13 0 -20 -5 -16 -4 5 -8 12 -8 15 0 4 -4 13 -9 21
-6 9 -5 12 5 9 8 -3 16 -15 17 -29z m-1493 11 c3 -5 1 -10 -4 -10 -6 0 -11 5
-11 10 0 6 2 10 4 10 3 0 8 -4 11 -10z m564 -75 c0 -5 -6 5 -14 24 -8 18 -15
41 -15 50 1 9 7 -2 15 -24 8 -22 15 -44 14 -50z m747 56 c-4 -5 -2 -11 4 -13
6 -2 -1 -20 -15 -41 -15 -21 -29 -36 -33 -33 -4 2 -8 -13 -9 -33 -1 -21 -7
-48 -13 -62 -7 -18 -8 -10 -4 36 5 42 14 69 31 89 15 18 21 35 18 47 -5 13 -1
19 10 19 9 0 14 -4 11 -9z m-1319 -33 c-3 -7 -5 -2 -5 12 0 14 2 19 5 13 2 -7
2 -19 0 -25z m1535 5 c3 -17 -35 -98 -50 -107 -4 -2 -16 0 -27 5 -20 7 -20 8
1 8 16 1 24 13 38 56 17 56 32 70 38 38z m69 -20 c-10 -17 -10 -16 -11 3 0 23
13 41 18 25 2 -6 -1 -18 -7 -28z m469 18 c0 -5 -7 -14 -15 -21 -16 -14 -18
-10 -9 14 6 17 24 22 24 7z m-1544 -39 c-15 -15 -16 -14 -16 6 0 13 4 20 10
17 6 -3 10 0 11 7 0 10 2 10 6 0 3 -8 -2 -21 -11 -30z m1614 17 c0 -6 -4 -7
-10 -4 -5 3 -10 11 -10 16 0 6 5 7 10 4 6 -3 10 -11 10 -16z m-1530 -48 c0
-53 -7 -81 -21 -81 -5 0 -5 10 0 23 5 12 8 42 7 65 -1 23 1 42 6 42 4 0 8 -22
8 -49z m630 22 c0 -21 -3 -24 -9 -14 -5 8 -7 20 -4 28 8 21 13 15 13 -14z
m330 -5 c0 -36 -4 -35 -14 5 -4 16 -2 27 4 27 5 0 10 -14 10 -32z m380 16 c0
-8 -4 -12 -10 -9 -5 3 -10 10 -10 16 0 5 5 9 10 9 6 0 10 -7 10 -16z m-1415
-44 c3 -11 1 -28 -5 -37 -10 -16 -11 -15 -6 6 3 14 0 31 -6 38 -7 9 -7 13 0
13 6 0 13 -9 17 -20z m518 -7 c-7 -2 -19 -2 -25 0 -7 3 -2 5 12 5 14 0 19 -2
13 -5z m-628 -43 c3 -5 2 -10 -4 -10 -5 0 -13 5 -16 10 -3 6 -2 10 4 10 5 0
13 -4 16 -10z m913 -31 c-10 -22 -22 -39 -24 -36 -8 7 24 77 35 77 5 0 0 -18
-11 -41z m-407 4 c-12 -20 -14 -14 -5 12 4 9 9 14 11 11 3 -2 0 -13 -6 -23z"/>
<path d="M2095 910 c10 -11 20 -20 23 -20 3 0 -3 9 -13 20 -10 11 -20 20 -23
20 -3 0 3 -9 13 -20z"/>
<path d="M2191 818 c7 -13 19 -34 26 -48 l14 -25 -5 30 c-2 17 -5 33 -5 37 -1
4 -10 12 -22 18 -19 11 -20 10 -8 -12z"/>
<path d="M1720 784 c-41 -18 -82 -53 -74 -65 3 -5 0 -9 -6 -9 -6 0 -18 -7 -26
-15 -11 -10 -12 -15 -3 -15 17 0 107 59 122 80 7 9 21 22 32 28 30 17 -3 14
-45 -4z"/>
<path d="M1686 651 c-3 -5 1 -11 9 -15 9 -3 15 0 15 9 0 16 -16 20 -24 6z"/>
<path d="M2060 650 c0 -5 5 -10 10 -10 6 0 10 5 10 10 0 6 -4 10 -10 10 -5 0
-10 -4 -10 -10z"/>
<path d="M1745 622 c3 -15 15 -36 26 -48 21 -23 25 -44 8 -44 -8 0 -7 -5 1
-15 10 -12 15 -13 21 -4 16 26 -17 126 -44 133 -16 4 -18 1 -12 -22z"/>
<path d="M1535 620 c-7 -11 2 -30 13 -30 4 0 8 9 9 20 2 21 -11 27 -22 10z"/>
<path d="M2140 581 c0 -6 5 -13 10 -16 6 -3 10 1 10 9 0 9 -4 16 -10 16 -5 0
-10 -4 -10 -9z"/>
<path d="M1146 828 c4 -5 8 -34 10 -64 4 -54 4 -55 -18 -43 -31 17 -185 12
-212 -7 -11 -8 -28 -14 -37 -14 -13 0 -39 -37 -39 -56 0 -2 24 9 53 25 61 34
155 48 205 30 17 -6 30 -15 27 -19 -3 -5 6 -21 20 -36 14 -15 25 -35 25 -46 0
-16 33 -93 47 -108 4 -5 23 20 23 33 0 4 -7 7 -15 7 -9 0 -20 21 -31 56 -18
63 -13 94 11 74 9 -7 18 -10 21 -8 3 3 -9 16 -25 28 -17 12 -31 29 -30 38 0
11 2 12 6 4 10 -25 22 -1 17 36 -10 72 -12 77 -39 78 -14 1 -22 -2 -19 -8z"/>
<path d="M1020 776 c8 -8 26 -17 40 -21 21 -5 20 -3 -8 14 -37 24 -53 27 -32
7z"/>
<path d="M1255 690 c-7 -12 2 -12 30 0 19 8 19 9 -2 9 -12 1 -25 -3 -28 -9z"/>
<path d="M790 591 c-12 -24 -13 -31 -2 -31 5 0 14 11 20 25 14 29 -2 34 -18 6z"/>
<path d="M975 600 c3 -5 8 -10 11 -10 2 0 4 5 4 10 0 6 -5 10 -11 10 -5 0 -7
-4 -4 -10z"/>
<path d="M1242 580 c0 -14 2 -19 5 -12 2 6 2 18 0 25 -3 6 -5 1 -5 -13z"/>
<path d="M880 534 c0 -17 22 -14 28 4 2 7 -3 12 -12 12 -9 0 -16 -7 -16 -16z"/>
<path d="M268 973 c-27 -17 -107 -153 -90 -153 5 0 29 25 53 55 24 30 56 64
72 76 23 17 26 23 16 30 -18 11 -20 11 -51 -8z"/>
<path d="M2416 915 c17 -85 44 -133 44 -78 0 15 -11 46 -25 68 -24 38 -25 39
-19 10z"/>
<path d="M438 834 c13 -24 82 -91 82 -80 0 10 -70 89 -83 95 -5 2 -4 -5 1 -15z"/>
<path d="M330 740 c-8 -5 -25 -10 -37 -10 -12 0 -24 -4 -27 -8 -7 -12 36 -7
67 8 21 10 33 11 53 1 26 -11 44 -8 44 10 0 12 -81 11 -100 -1z"/>
<path d="M475 720 c3 -5 11 -10 16 -10 6 0 7 5 4 10 -3 6 -11 10 -16 10 -6 0
-7 -4 -4 -10z"/>
<path d="M222 680 c-13 -11 -22 -24 -20 -30 2 -6 14 3 26 19 26 36 25 37 -6
11z"/>
<path d="M354 690 c-17 -6 -37 -17 -44 -25 -7 -8 -18 -15 -26 -15 -16 0 -37
-37 -29 -50 3 -6 -1 -10 -9 -10 -9 0 -16 -4 -16 -10 0 -22 33 -8 66 26 19 20
34 40 34 44 0 4 17 14 38 22 31 12 45 12 85 2 26 -7 59 -20 73 -29 14 -9 29
-14 32 -10 12 12 -48 55 -76 55 -15 0 -43 2 -62 5 -19 2 -49 0 -66 -5z"/>
<path d="M20 580 c-33 -25 -23 -32 13 -10 16 10 25 20 20 23 -5 3 -20 -3 -33
-13z"/>
</g>
</svg>
